<?xml version="1.0" encoding="UTF-8"?> <svg xmlns="http://www.w3.org/2000/svg" xmlns:xlink="http://www.w3.org/1999/xlink" width="617.32" height="86.513" viewBox="0 0 617.32 86.513"><defs><clipPath id="a"><rect width="617.32" height="86.513" fill="none"></rect></clipPath></defs><g transform="translate(0 0)"><g transform="translate(0 0)" clip-path="url(#a)"><path d="M76.4,0H73.443L46.474,67.691h-.063L19.471.073,19.442,0H16.268L.024,82.6,0,82.74H9.8l.01-.1c.876-15.093,2.341-40.33,6.642-66.4H16.5l26.3,66.433.029.073h1.761L70.908,16.235h.048L83.292,82.648l.019.092h9.361L76.418.092Z" transform="translate(0 -0.001)" fill="#11181c"></path><path d="M91.36,63.632c-5.81-8.678-11.3-16.878-20.371-20.83v-.145A35.967,35.967,0,0,0,88.414,36.02c3.914-2.927,8.572-7.987,8.572-15.494,0-7.846-3.149-13.5-9.365-16.791C82.885,1.219,76.32,0,67.545,0H42.4V82.74h8.819V42.884c16.7.532,22.8,10.376,29.262,20.8,6.168,9.946,12.544,20.235,28.735,22.818l.092.015.818-2.322-.082-.044C101.9,79.378,96.536,71.377,91.36,63.632M51.219,38.806V5.041A74.4,74.4,0,0,1,64.754,3.768c6.2,0,11.8,1.379,15.775,3.88,4.857,3.057,7.324,7.648,7.324,13.632,0,17.042-20.642,18.368-26.969,18.368a55.874,55.874,0,0,1-9.665-.842" transform="translate(162.709 -0.001)" fill="#11181c"></path><path d="M111.929,41.308c-.358-.285-.716-.576-1.088-.847a25.026,25.026,0,0,0-3.348-2.008c-.266-.131-.532-.256-.8-.382a28.705,28.705,0,0,0-4.1-1.529l-.189-.053a33.813,33.813,0,0,0-9.225-1.359h-.469v-.01A28.56,28.56,0,0,0,105.3,29.408a15.94,15.94,0,0,0,5.892-12.64,13.785,13.785,0,0,0-7.063-12.534C99.458,1.423,92.473,0,83.364,0H61.01v82.74H83.9c26.306,0,35.676-13.1,35.676-25.363a20.245,20.245,0,0,0-6-14.783c-.489-.484-1.113-.847-1.65-1.287m-42.1-36.16A68.042,68.042,0,0,1,81.647,3.982c6.173,0,11.276,1.132,14.769,3.275a11.477,11.477,0,0,1,5.747,10.367C102.162,30.8,85.5,34.952,69.829,37.8ZM81.323,78.112a76.677,76.677,0,0,1-11.494-.842V42A64.681,64.681,0,0,1,85.836,39.76c15.47,0,24.71,7.111,24.71,19.016,0,16.82-18.31,19.335-29.223,19.335" transform="translate(234.125 0.002)" fill="#11181c"></path><path d="M136.96.121c.909,13.047,1.466,25.489,1.7,37.708.01.353.014.706.019,1.055q.109,5.943.111,11.832c0,9.022-2.327,15.954-6.913,20.608-4.441,4.5-10.894,6.792-19.2,6.792-16.82,0-25.353-9.438-25.353-28.043V0H78.509V50.184c0,11.291,2.733,19.834,8.117,25.392,5.37,5.539,13.593,8.349,24.444,8.349,10.9,0,19.3-2.811,24.937-8.349,5.771-5.66,8.7-14.2,8.7-25.392V0h-7.754Z" transform="translate(301.277 -0.001)" fill="#11181c"></path><path d="M146.622,63.632c-5.815-8.678-11.3-16.878-20.371-20.83v-.145a35.984,35.984,0,0,0,17.429-6.637c3.909-2.927,8.572-7.987,8.572-15.494,0-7.846-3.149-13.5-9.365-16.791C138.147,1.219,131.582,0,122.807,0H97.662V82.74h8.819V42.884c16.7.532,22.8,10.376,29.262,20.8,6.168,9.946,12.548,20.235,28.739,22.818l.092.015.813-2.322-.082-.044c-8.146-4.77-13.506-12.776-18.682-20.516M106.481,38.806V5.041a74.4,74.4,0,0,1,13.535-1.272c6.2,0,11.808,1.379,15.775,3.88,4.857,3.057,7.319,7.648,7.319,13.632,0,17.042-20.637,18.368-26.964,18.368a55.875,55.875,0,0,1-9.665-.842" transform="translate(374.776 -0.001)" fill="#11181c"></path><path d="M173.087,0l-.029.073A208.366,208.366,0,0,1,151.4,42.014h-.1L123.832.048,123.8,0H113.112L143.83,46.667V82.74h8.814v-36.5L183.139.174,183.255,0Z" transform="translate(434.065 -0.001)" fill="#11181c"></path><path d="M61.026,0H58.515L22.6,82.585l-.068.155h9.931l.019-.087c1.679-7.667,3.986-16.022,6.85-24.84L40.4,54.538a6.286,6.286,0,0,1,5.428-3.009c3.207,0,6.908,2.061,10.826,4.247,4.494,2.506,9.143,5.1,13.777,5.1,3.067,0,4.9-1.229,5.776-3.87h.16L87.5,82.673l.029.068h9.7L61.06.068Zm14.29,54.581c.019.208.053.474.053.6,0,1.074-.431,1.287-1.175,1.287-2.143,0-5.916-1.94-9.907-3.991-4.987-2.564-10.642-5.466-14.7-5.466a11.305,11.305,0,0,0-7.643,3.517l-.145-.1c5.66-16.3,11.837-30.365,15.141-37.524h.285L73.923,51.214Z" transform="translate(86.474 -0.001)" fill="#11181c"></path></g></g></svg> 